<?xml version="1.0" standalone="no"?>
<!DOCTYPE svg PUBLIC "-//W3C//DTD SVG 20010904//EN"
 "http://www.w3.org/TR/2001/REC-SVG-20010904/DTD/svg10.dtd">
<svg version="1.0" xmlns="http://www.w3.org/2000/svg"
 width="840.000000pt" height="601.000000pt" viewBox="0 0 840.000000 601.000000"
 preserveAspectRatio="xMidYMid meet">

<g transform="translate(0.000000,601.000000) scale(0.100000,-0.100000)"
fill="#000000" stroke="none">
<path d="M0 3005 l0 -3005 4200 0 4200 0 0 3005 0 3005 -4200 0 -4200 0 0
-3005z m5077 1453 c291 -215 570 -422 621 -460 l92 -70 0 -1042 c0 -820 -3
-1045 -12 -1055 -9 -9 -9 -12 -1 -7 6 3 13 1 15 -4 2 -7 89 -12 253 -13 l250
-2 3 -218 c2 -172 0 -217 -10 -218 -7 0 -348 0 -758 0 -572 0 -746 3 -749 12
-2 8 2 10 12 6 12 -4 14 -2 10 10 -4 11 -2 14 5 9 7 -4 12 -3 12 3 0 5 33 44
74 86 l75 76 132 -2 c79 0 134 3 138 9 3 6 5 209 3 451 l-2 441 -285 0 -285 0
-1 -392 c-1 -490 -1 -490 -18 -496 -8 -2 -11 -1 -8 4 3 5 -84 8 -201 6 -672
-8 -2029 -6 -2024 3 3 6 -1 4 -10 -3 -10 -8 -17 -9 -20 -2 -1 5 -9 0 -17 -12
-7 -13 -10 -20 -6 -16 9 8 19 0 96 -73 42 -41 55 -59 47 -67 -8 -8 -5 -9 9 -6
14 4 25 -2 37 -20 l16 -26 -325 -1 c-179 -1 -333 -2 -342 -3 -17 -1 -18 16
-18 219 l0 220 240 2 240 2 -3 318 c-1 175 -5 417 -8 538 l-5 220 318 286
c175 157 666 599 1091 982 425 383 777 697 782 697 6 0 247 -176 537 -392z
m-1092 196 l-130 -123 -631 -1 -631 0 -6 -187 c-4 -104 -7 -365 -7 -581 l0
-394 -31 -29 c-17 -16 -35 -29 -40 -29 -5 0 -9 -7 -9 -15 0 -9 -10 -15 -22
-16 -13 0 -17 -3 -10 -6 9 -3 6 -11 -10 -25 -13 -10 -39 -34 -58 -52 -19 -18
-41 -36 -47 -40 -10 -5 -13 167 -13 808 l0 816 852 2 c469 2 869 1 888 -1 l35
-4 -130 -123z m-372 -282 c28 -25 22 -83 -12 -116 -21 -20 -31 -24 -36 -15 -5
8 -4 10 3 5 7 -4 11 3 10 21 0 15 2 43 5 61 3 17 2 32 -2 32 -4 0 -7 9 -7 19
0 20 9 19 39 -7z m-669 -11 c19 -36 17 -70 -6 -100 -10 -13 -18 -21 -18 -18 0
3 -3 14 -6 24 -5 15 -4 15 5 3 13 -18 15 -1 2 19 -7 11 -11 10 -20 -5 -6 -11
-11 -14 -11 -8 0 6 7 17 15 24 18 15 20 34 3 24 -10 -6 -10 -4 -1 6 10 11 9
18 -7 35 -19 21 -19 21 5 23 18 1 29 -6 39 -27z m326 9 c0 13 2 13 9 0 14 -26
21 -80 10 -80 -6 0 -8 -4 -5 -8 6 -9 -2 -22 -26 -40 -15 -12 -16 -9 -12 34 3
27 0 52 -7 60 -9 11 -9 14 0 14 7 0 9 5 6 10 -3 6 -3 15 1 22 5 8 10 6 15 -8
5 -13 8 -14 9 -4z m15 -337 c-2 -7 0 -13 5 -13 6 0 10 -11 10 -25 0 -14 -5
-25 -11 -25 -5 0 -8 -4 -5 -8 5 -9 -2 -22 -24 -39 -13 -10 -15 -5 -14 33 1 25
4 48 7 51 3 3 0 12 -8 20 -20 19 -19 34 2 26 11 -4 14 -3 9 6 -6 9 -3 9 13 -1
12 -7 19 -19 16 -25z m-368 16 c-9 -6 -14 -16 -11 -22 5 -8 2 -7 -7 1 -12 11
-12 14 1 22 8 5 20 10 25 10 6 -1 2 -5 -8 -11z m33 -28 c5 -11 10 -29 10 -41
0 -28 -31 -68 -49 -62 -9 3 -11 0 -6 -8 5 -8 4 -11 -3 -6 -6 4 -9 13 -6 21 4
8 10 12 15 9 5 -3 9 7 9 23 0 22 -2 25 -10 13 -8 -13 -10 -13 -10 2 0 9 4 19
9 23 6 3 8 14 6 25 -5 26 21 26 35 1z m10 -357 c0 -34 -14 -54 -23 -32 -3 7
-6 1 -6 -13 -1 -14 -4 -29 -7 -32 -11 -11 -25 3 -17 16 4 7 9 23 10 37 3 20 1
22 -8 10 -9 -12 -9 -11 -3 5 4 11 8 32 9 48 4 43 5 43 25 18 11 -13 20 -38 20
-57z m1081 -2156 c0 -7 2 -26 3 -42 1 -24 -4 -31 -30 -42 -17 -7 -47 -15 -65
-17 -19 -3 -50 -12 -69 -20 -19 -8 -48 -16 -65 -18 -16 -2 -35 -7 -41 -11 -6
-4 -20 -6 -33 -3 -12 2 -19 0 -16 -6 4 -5 -1 -10 -9 -10 -18 -2 -17 -1 -73
-17 -23 -7 -45 -11 -50 -10 -4 1 -18 -3 -29 -10 -12 -6 -23 -9 -26 -7 -2 2
-26 -2 -53 -10 -56 -17 -145 -20 -145 -4 0 5 5 7 10 4 6 -3 22 3 37 15 21 17
35 20 65 15 25 -5 38 -3 38 4 0 6 -7 11 -15 11 -8 0 -15 5 -15 10 0 6 -18 10
-40 10 -22 0 -40 5 -40 10 0 11 2 12 53 15 25 1 37 -2 37 -11 0 -8 5 -14 10
-14 6 0 10 6 10 14 0 15 -27 29 -40 21 -5 -3 -11 -2 -14 3 -3 5 0 9 7 9 41 2
91 13 100 22 5 5 23 7 38 4 19 -3 29 -1 29 6 0 7 5 9 10 6 6 -3 16 -3 23 2 13
8 29 12 67 17 14 1 32 5 40 9 19 7 96 19 132 20 15 1 24 5 21 11 -3 5 5 7 21
4 14 -3 26 -1 26 4 0 5 8 7 18 4 9 -3 24 -1 32 4 21 14 40 12 41 -2z m-716
-158 c25 -11 -1 -11 -35 0 -20 6 -21 8 -5 8 11 0 29 -3 40 -8z m853 -75 c-3
-43 -5 -46 -40 -57 -21 -6 -38 -14 -38 -19 0 -4 -7 -10 -16 -13 -10 -4 -13 -2
-9 7 4 6 0 4 -9 -7 -8 -10 -19 -15 -24 -12 -6 3 -12 -1 -16 -9 -3 -8 -14 -15
-25 -15 -11 0 -23 -5 -26 -10 -4 -6 -10 -8 -15 -5 -4 3 -11 -2 -14 -11 -4 -9
-13 -14 -22 -10 -8 3 -12 2 -9 -4 5 -9 -8 -12 -32 -9 -3 0 -10 -6 -15 -15 -5
-9 -18 -16 -28 -16 -10 0 -21 -4 -24 -9 -3 -4 -17 -7 -30 -6 -19 2 -23 -1 -19
-13 4 -10 2 -14 -2 -9 -5 4 -17 0 -27 -10 -10 -9 -39 -22 -65 -29 -27 -6 -47
-17 -45 -23 1 -6 -1 -10 -5 -10 -5 1 -20 1 -35 0 -22 -1 -26 -5 -21 -18 6 -16
5 -16 -10 -5 -17 14 -42 8 -32 -8 3 -5 0 -12 -6 -16 -7 -4 -9 -3 -6 3 10 16
-34 24 -52 10 -11 -8 -11 -5 2 9 9 11 14 24 10 27 -3 4 -2 7 4 7 16 0 62 47
55 56 -4 5 2 2 13 -6 11 -8 22 -15 24 -17 2 -1 -8 -8 -23 -14 -21 -10 -24 -14
-12 -21 20 -11 46 1 39 18 -3 8 0 14 6 14 6 0 8 8 4 18 -5 13 -3 14 7 5 7 -6
18 -9 25 -7 7 3 16 1 20 -5 8 -13 42 -14 50 -2 3 5 0 13 -6 17 -8 5 -9 3 -4
-6 6 -10 3 -11 -16 -6 -13 5 -32 8 -42 9 -10 1 -15 7 -13 13 3 7 -5 15 -17 18
-12 3 -23 1 -25 -4 -2 -6 -10 -10 -18 -10 -8 0 -17 -7 -20 -15 -8 -19 -20 -12
-27 15 -3 11 -1 18 3 15 4 -3 19 -1 32 5 20 8 20 10 3 9 -35 -2 -46 1 -40 11
3 5 12 7 19 4 7 -3 29 4 47 15 19 12 44 21 57 21 12 0 22 5 22 11 0 5 4 8 9 5
4 -3 24 3 44 13 33 17 37 17 53 2 9 -9 14 -11 10 -4 -9 16 21 43 41 36 11 -4
14 -3 9 6 -5 8 -3 11 5 10 8 -2 24 3 37 10 13 7 30 10 38 7 8 -3 12 -1 9 4 -7
12 40 24 56 14 7 -4 9 -3 5 4 -4 6 20 19 61 32 38 12 82 28 98 36 55 25 66 20
63 -31z m-872 18 c-10 -11 -37 -12 -30 -2 3 5 12 9 21 9 9 0 13 -3 9 -7z
m2978 -29 c10 -4 14 -30 15 -110 l2 -104 -878 2 -878 3 -5 98 c-3 55 -1 101 4
105 5 3 6 -1 2 -9 -4 -8 -1 -6 6 4 12 16 63 17 865 17 469 0 859 -3 867 -6z
m-2939 -14 c-3 -5 -14 -10 -23 -9 -14 0 -13 2 3 9 27 11 27 11 20 0z m20 -240
c3 -6 -1 -7 -9 -4 -18 7 -21 14 -7 14 6 0 13 -4 16 -10z m55 -10 c0 -5 -5 -10
-11 -10 -5 0 -7 5 -4 10 3 6 8 10 11 10 2 0 4 -4 4 -10z m-20 -20 c8 -5 11
-10 5 -10 -5 0 -17 5 -25 10 -8 5 -10 10 -5 10 6 0 17 -5 25 -10z m-27 -111
c-8 -8 -13 -7 -18 2 -5 8 -4 10 3 5 7 -4 12 -2 12 5 0 7 3 9 7 6 4 -4 2 -12
-4 -18z m37 -9 c0 -5 -2 -10 -4 -10 -3 0 -8 5 -11 10 -3 6 -1 10 4 10 6 0 11
-4 11 -10z m-60 -10 c0 -5 -5 -10 -11 -10 -5 0 -7 5 -4 10 3 6 8 10 11 10 2 0
4 -4 4 -10z m2949 -174 c-1 -134 -3 -155 -17 -161 -20 -8 -689 2 -779 11 -70
7 -86 24 -23 24 l41 0 -3 98 -3 97 -50 2 c-27 1 -58 2 -67 2 -10 1 -18 6 -18
11 0 6 30 10 71 10 67 0 70 1 67 23 -3 22 -2 22 147 27 83 3 259 6 393 8 l243
3 -2 -155z"/>
<path d="M4131 4177 c-69 -73 -126 -138 -129 -145 -3 -10 25 -12 130 -10 l133
3 3 143 c1 78 -1 142 -5 141 -5 0 -64 -60 -132 -132z"/>
<path d="M4010 3650 l0 -250 130 0 130 0 0 250 0 250 -130 0 -130 0 0 -250z"/>
<path d="M3638 3722 l-118 -107 0 -107 0 -108 120 0 120 0 0 215 c0 118 -1
215 -2 215 -2 -1 -56 -49 -120 -108z"/>
<path d="M4885 3794 c-103 -28 -162 -61 -219 -124 -198 -219 -105 -587 171
-675 78 -25 191 -17 270 19 174 79 268 288 217 481 -44 170 -184 290 -349 300
-39 2 -79 2 -90 -1z"/>
<path d="M3157 3282 l-117 -118 2 -184 3 -185 118 -3 117 -3 0 306 c0 168 -1
305 -3 305 -1 0 -55 -53 -120 -118z"/>
<path d="M3520 3040 l0 -230 120 0 120 0 0 230 0 230 -120 0 -120 0 0 -230z"/>
<path d="M4010 3030 l0 -241 128 3 127 3 0 235 0 235 -127 3 -128 3 0 -241z"/>
<path d="M2697 2872 l-97 -97 0 -168 0 -167 110 0 110 0 0 265 c0 207 -3 265
-13 265 -7 0 -56 -44 -110 -98z"/>
<path d="M3046 2683 c-3 -4 -6 -204 -6 -445 1 -341 3 -437 13 -431 7 4 59 8
117 9 l105 1 3 437 2 436 -113 0 c-63 0 -117 -3 -121 -7z"/>
<path d="M3520 2513 c0 -98 -3 -294 -7 -435 l-6 -258 89 -1 c49 0 108 -1 132
-3 l42 -2 0 422 c0 232 -3 429 -6 438 -5 13 -26 16 -125 16 l-119 0 0 -177z"/>
<path d="M4005 2488 c-3 -112 -5 -309 -3 -438 3 -221 4 -235 21 -232 10 2 25
-2 33 -9 10 -8 14 -8 14 0 0 8 30 11 100 9 l101 -2 -1 428 c0 236 -3 432 -6
437 -3 5 -61 9 -128 9 l-124 0 -7 -202z"/>
<path d="M2598 2069 c-2 -140 1 -254 6 -259 5 -5 16 -5 27 0 10 6 54 9 99 8
50 -1 84 3 88 9 4 6 6 119 4 252 l-3 241 -109 0 -109 0 -3 -251z"/>
<path d="M3548 1403 c7 -3 16 -2 19 1 4 3 -2 6 -13 5 -11 0 -14 -3 -6 -6z"/>
<path d="M3499 1387 c7 -7 14 -8 21 -1 6 6 2 10 -12 11 -16 2 -18 -1 -9 -10z"/>
<path d="M3530 1320 c0 -5 5 -10 10 -10 6 0 10 5 10 10 0 6 -4 10 -10 10 -5 0
-10 -4 -10 -10z"/>
<path d="M3573 1098 c-13 -6 -23 -15 -23 -20 0 -14 16 -9 35 12 20 22 19 23
-12 8z"/>
<path d="M3505 950 c-16 -7 -17 -9 -3 -9 9 -1 20 4 23 9 7 11 7 11 -20 0z"/>
</g>
</svg>
